<svg xmlns="http://www.w3.org/2000/svg" xmlns:xlink="http://www.w3.org/1999/xlink" width="28.68" height="28.68" viewBox="0 0 28.68 28.68"><defs><clipPath id="a"><rect width="28.68" height="28.68" fill="none"/></clipPath></defs><g clip-path="url(#a)"><path d="M15.791,9.487a1.527,1.527,0,0,0-1.26.091,1.531,1.531,0,0,0,.183,2.782,5.627,5.627,0,0,1-2.384,10.882,1.523,1.523,0,0,0-1.6,1.194A1.549,1.549,0,0,0,11,25.693a1.521,1.521,0,0,0,1.107.61c.213.016.424.024.634.024a8.7,8.7,0,0,0,3.05-16.839" transform="translate(0.246 0.216)" fill="#229da7"/><path d="M17.276,2.723a1.522,1.522,0,0,0-1.108-.611,8.7,8.7,0,0,0-3.684,16.817,1.514,1.514,0,0,0,1.26-.091,1.531,1.531,0,0,0-.183-2.782A5.627,5.627,0,0,1,15.945,5.173a1.522,1.522,0,0,0,1.6-1.194,1.549,1.549,0,0,0-.272-1.256" transform="translate(0.157 0.048)" fill="#229da7"/></g></svg>