<svg version="1.1" xmlns="http://www.w3.org/2000/svg" viewBox="0 0 1291.1706345241832 447.7965841029978" width="1291.1706345241832" height="447.7965841029978">
  <!-- svg-source:excalidraw -->
  <!-- payload-type:application/vnd.excalidraw+json --><!-- payload-version:2 --><!-- payload-start -->eyJ2ZXJzaW9uIjoiMSIsImVuY29kaW5nIjoiYnN0cmluZyIsImNvbXByZXNzZWQiOnRydWUsImVuY29kZWQiOiJ4nOVcXGtT28hcdTAwMTL9nl9BsV/X2umZ6Xls1a1bJjHghLBweYXc2qJcdTAwMTRbYFx1MDAwNdsyknhu5b/fXHUwMDFlXHUwMDA1LPkhx4BMzFxyUGA0I09rpk/36Z5cdTAwMWX/82ZlZTW9XHUwMDFkXHUwMDA0q3+urFx1MDAwNjctv1x1MDAxYrZj/3r1d3f9KoiTMOpTXHUwMDEzz/5Posu4lfXspOkg+fOPP3p+fFx1MDAxZaSDrt9cbryrMLn0u0l62Vx1MDAwZSOvXHUwMDE19f5cYtOgl/zb/d72e8G/XHUwMDA2Ua+dxl4+SC1oh2lcdTAwMTR/XHUwMDFmK+hcdTAwMDa9oJ8m9O7/pf9XVv7Jflx1MDAxN6SLg1bq98+6QXZD1pRcdTAwMGIoQY9f3Y76mbDCSKOtXHUwMDA2XHUwMDFjdlxik3c0XFxcdTAwMWG0qfWURFx1MDAwZfJcdTAwMTZ3afVkv9U40kfx1lx1MDAwNd9a+9w73q9v9W7zUU/Dbncvve1mUiVcdTAwMTE9TN6WpHF0XHUwMDFlXHUwMDFjhe208zBthetld8XR5VmnXHUwMDFmJO7pYXg1XHUwMDFh+K0wvXXXXHUwMDE4XHUwMDFiXv0+XHUwMDA1f67kV27c82vmaYucWaGUNjZcdTAwMWbZ3V/jYDxF7YZzJcFoo8cke1x1MDAxYnVpJUiy3yBw37lsX/zW+Vx1MDAxOVx02G9cdTAwMGb7pLHfT1x1MDAwNn5M65X3u354ZlCetZxcdTAwMTmrhFx1MDAxNdKiXHUwMDFhdulcdTAwMDThWSd1faT1jFx1MDAwNslBWG1tQdokyFZcdTAwMDVQUYMyOpfTyTBotjNcdTAwMDX5O1+LmFSr6W7pX3a7xVx07bfvJ/RBkXJVXHUwMDEy91e+5Vx1MDAwZun6N8ZVsKiGXHUwMDA19TCCX16vf2437jZcdTAwMTJzsFx1MDAxNV1cdTAwMWPus/PhRIzorFx1MDAxZsfR9eqw5dv9q1xc/stB2/+uiKCFZFxuwGpl8inrhv3z8YfrRq3zXFx331x1MDAxNJ5kXHUwMDAyM2lwk06DXHUwMDBiaFlcdTAwMDZcdTAwMTclSVx1MDAwMGFcdTAwMGJ4+lx1MDAxMVxcxNrb+mnn6uzrsXy7VVx1MDAwZjf3TjrvO8tcclx1MDAxN1x1MDAxNNxcdTAwMTOknqSAwlx1MDAxYc70KFxcgHFPK1pcdTAwMTFrXHUwMDExcUSHq4aLXHUwMDFiSjLLmObSXGImrZiEXHUwMDBiaE9qbZiwTGhgmslcdLxwKVArzvD5eFx1MDAxOWmYXHUwMDAwRpWqm0tcdTAwMTX1073wzq1cdTAwMTNIXHUwMDBmXHUwMDE1zYRCoyRHxWCk17rfXHUwMDBiu26N8mnKdJymeS88669cdTAwMWNcZlbWo7i3OtJa71KT69Jcck5H4ZCG5IyGzWk0yFtbNJpcdTAwMWb2g3hytqI4PFx1MDAwYvt+d3/myPT8weZwXHQ9XlCRJHCN7rKYXHTf2S6vXHUwMDFjw2CkW1x1MDAxMFx1MDAxNHZuXHUwMDEw+/tcdTAwMWJcdTAwMWZcdTAwMGaa7Vx1MDAwZsFcdTAwMTWvy/r2+d7m7Vx1MDAxN1huXHUwMDEwXHUwMDAzoCavhoKQXHUwMDAx0liT68S900PSJSM1XHUwMDA3JjiXzCy509NglFx1MDAxNVx1MDAwMipcdTAwMDDxMjm932e9bzfiN7tS3TY+Yfeit9mp11x1MDAwZllSwfvWXHUwMDBmXHUwMDBlP1x1MDAxZX6+fNe8XFz/wnfXt7ZPPzRZXHUwMDA174vvuu0rv1x1MDAxM+1sXHUwMDFjtU+OLk6vr/VxXFyV81x1MDAxN4yB4kVcdTAwMGLyXHUwMDFj5/99/GneX0CZ5TBcdTAwMDRcdTAwMTZcIl98fsMxWzGW03BcYkP+3UihySxcYkuUeMz9c+OhZfSjye1ypcdFq9D9c+VcdTAwMTny+lxmkSursDDxQ8PBxlxyhVHkXHUwMDFhuV2MneA/tlx1MDAxM1x1MDAwYuFcdTAwMDBJ6sfpWthvh/2zUcHuQ8PmXHUwMDFjfipjXHStSydljXmCXHRcdTAwMDPGkEHmXHUwMDAyaL5cbr3O/IGbSFx1MDAwZkBcdTAwMTGpclNP+qAmXHUwMDFlPei3fyyS+HRx29k8Oah9VUcgbfQp9d/ZaVwizSFcdTAwMTG5LIpXpUYkRiiAgZyQqesn6duo11x1MDAwYlOa+Z0o7KfjM5xNZd2hv1x1MDAxM/hcdTAwMTPLT89UbFx1MDAxYjdcdTAwMTNcdTAwMDP3jqPuIH+1kitj9s/w9d+/T+1drt5jt78p/n1sNMOFXHUwMDFhv/pgzyz5fXKoXHUwMDA1XHUwMDE2+SN71mz7bdvs7V+e3TAjXHUwMDFhXHUwMDFmd1x1MDAwZtq9yyW3ZzRcdTAwMDGeolxiXHUwMDAyQUrDiFx1MDAxMk2GM4wr7qhcdTAwMTLFPPRyYfZcZsFcdTAwMDNTXHUwMDE4vzSG4Vx1MDAxM/RHMi5RS8xZ3K9cdTAwMTfCXHUwMDA0MenvXHUwMDBiXHUwMDA3L2NjVlx1MDAxMLaU4VTIUpxqhYxreETAknR2XHUwMDFi7fXD0/WjtVx1MDAxYlx1MDAxOZuP+42buLncOLVMeaT8pObS5Vx1MDAxNVxuLOw7TJFcdTAwMTRHaqZcdTAwMTST5JJwceFcblpPP1x1MDAxNaZAT0FYsVx1MDAwNel/OZzu+LfdyG+/LFAnXHUwMDA2XXSCXHUwMDAxVWmYXHUwMDAwxImRONNjsoQzWdJS4lx1MDAxNZBLz2qhkdSDXHUwMDAyMz6WJnxtXHRcdTAwMDbLrKagp1x1MDAwMuD+8umF9bp931xu9VorODxcdTAwMWXcpVx1MDAxZnDtfK+yNIA0IHhlaYByb8xK4Y1guVZcXMxcdTAwMGbv9etOk1x1MDAxZH3dPU/EQUOt1T/c9HtiyeGtuMOvZEyCJtSM51x1MDAwZin68pQyaFx1MDAwMJFMgTZcdTAwMGLcXHUwMDA10Fx1MDAxZSNpnuSPyTRcdFx1MDAxMMVcXO8v54/frb2sKy6OV4FcdTAwMTcuTdRJM37xXHUwMDAxoVx1MDAxMpRCzfj8XHUwMDAwnW1cdJdcdTAwMTOg0mpPkcdSzlx1MDAwNSvQuYZlXHUwMDAwXHUwMDE14EmjrFx1MDAwMa5cZrfcXHUwMDE29s4qXHUwMDA3KFxij+whWVx1MDAwMfK/SFxuOk+ejlx1MDAxYsXBWllcdTAwMDEyX12ebu6kWI2RhXNcdTAwMDFcdTAwMDXZNqRcdTAwMTlcdTAwMTNaXHUwMDE0en3PinHtXHRaXstIIVx1MDAxOCNj/MRM3dzJw0mZJoWyXqZcdTAwMGVcblx1MDAxNDPALEzK9JoydbVyXHJcdTAwMWa7/03x76NJh+DjV4ekgyvCstJ2fptWP6wl6qs4631Oj1qy2+md7Fx1MDAxY/Nlt2nMkE3TmqGVQlx1MDAxODVWqVx1MDAwMyg8XHUwMDA0TatgXHUwMDA1SmNcdTAwMTeZq3tGXHUwMDE2QKJcdTAwMDRcdFXsQLxWzvF/k1x1MDAwMyiFqiqtL0BBRlGhnb+k7tr/a2Mr2N20Pdmo6Zuk3t3dbLxupCr0tFSEXHUwMDEyST+a6cWRXHUwMDBmZbynxVx1MDAwNmTIiYBcYvVcdTAwMGKn1P9cdTAwMTMkg6ifXHUwMDA0L4vTyVFcdTAwMTdcdTAwMTkmIJZG8lx1MDAwNrVcdTAwMDKXrZ3fp84snFhKpGpBSJBCaiD2XHUwMDAwfDxMXHUwMDAwzjxLQYS0hnicYDN2862GXHUwMDE2fzpQSd89xchUaKNcdTAwMTWiyFxyaHmQYK1GYpm6XHUwMDAyjFZcdTAwMWQkuN3qgo1/epAwzmqnMvWce3NcdTAwMDdxmkUwXHUwMDEyXGaCXHUwMDFkTuOQe2dcXJXMLtNoOUmbp0Pno/yvmqqXatnY3c9cIupoyqtcdTAwMGIp3kFgyj5iU73TkGfH8e1nv1x1MDAxZf910umtXHUwMDFk3+3cLbdRcZt1Lq0gUVhyYHJsT904NWWkhMiFYsWgpfrUg/WkeFx1MDAxYU0n/dDcaPMz9+q4YKwgwEtcdTAwMTNcdTAwMDB3VGWlQXCMXHQ47GVpQNnYXHUwMDBiJVx1MDAwM7Y8rU9aXHUwMDBmUnE5P1x1MDAxYphd7riUwFx1MDAwNeI7XHUwMDE0QlN8isz9YWPVfeiQK4BcdTAwMDJcdTAwMTjhqujU4lx1MDAwMmxnqJ314Fxc0Pc8XHUwMDE5Q7BgiKQotZBzL89jXHUwMDAznCEvpDJ/cmlcdTAwMWZNqKEgVIN1XHUwMDA3mvhcdTAwMTSKoD1wxlx1MDAwNzmts9GWT1bSjTCR0Vx1MDAwN3lFdKBWomZjN8/FXHUwMDA2MtszxahcdTAwMTQsxsRWoTaKXHUwMDAy5EfsRFxc7X9Ir9mOqKutr+vttYPa4KrZW3abYtz+u9RImmQ5ju5cdTAwMTRK8Fx1MDAwNM2CYEZrSWZlcVx1MDAwMUYu1dCGIC1+VpxgpDu3VeApXHUwMDBmNoX8JlfW8CW0KYLTV77JtYhcYmORuFx1MDAxZWmrXHUwMDE01CO9J5b4kaieXeVjSovyKPLSRlx1MDAxYTt/UVx1MDAxZTSb61x1MDAxYsfxh95dr39xXCK+2GRjXHUwMDEwLTe0tdtFlEq6XCJlMIVcdTAwMTJcdTAwMWV3O6InaFx1MDAxNqRcdTAwMDW01khbXGKKKq/wYdbjzGUoUCPFttPOXHUwMDAxovAo0nC11NqQzysszFx1MDAwM9bJQlmmJS5ky/GZNT5cdTAwMTfh3cnpyXuO/tH+8ZHuJdu3x7Vcbmpx1Kf37USdn7UkP+m22rtcbo+sqqxcdTAwMTZcdTAwMDfJcD7GQs1EYmmuXHUwMDFkSrfFOJOgXGaqR6Dw01Zj+/bzlmB3XHUwMDFm3+N7o0xz++3WkqNQgafAXHUwMDFhRpxNSTF2IDc7RiC0YKiJXHUwMDFmXHUwMDE3Kk8rj7Xd7ttcdTAwMTNcdTAwMGJxpHA1RMWj9S9cdTAwMWZrXHUwMDBiJFx1MDAxOX7inlgn6lx1MDAwNyuHQVx1MDAxY55S/Jw63Vx1MDAxZemz8O2xXHUwMDE54y8y5i6Cc7xQh1SWNONcdTAwMTG5stlmcinRS/RcdTAwMTjdXHUwMDAxXHUwMDE0oDCLXHUwMDAwimx0q8xcdTAwMTXSMVxu0ihcdTAwMWOjIFIrOyPkfiZBJo7kMVx1MDAxYV8wRizdXHUwMDE4M82Nelx1MDAwNFx1MDAxMmZQakDOOGMyqMHEkXpuQYlq4FxcOWtGLVlcdTAwMTWR+FxcefmRXHUwMDE4fTbBW1x1MDAxOVx1MDAwNt9cdTAwMTQtMdBKoVKZ3cZCl2LlXHUwMDBmqVx1MDAwM9eaXHUwMDEx71wiu49mYlpeVSBernzua7raPZLKl5ogbkprXHUwMDA1hftsXHTJYP6s32xGtZQmyFx1MDAxMoFcdTAwMDCaXHUwMDA04bbiXHUwMDAxXG7wyO6X3CNa7Vx1MDAwZd0wqzSDclx1MDAxZc9PbSDlMzbrufbIXHUwMDFmUNBAwlxiXiB2M9J+XHUwMDE0hFx1MDAwMGlcdTAwMDUs4SagdPDNJa4+7fdDk5JvXGaCoFx1MDAwMFhcdTAwMTMzkURcdTAwMTEpXHUwMDEw5oVe95WCWeWeXCKAXHUwMDE5XHUwMDAyIadwaOLh/z+yfqVqNnb386yKlOXEhjkkcfWII1x1MDAwMjPPTCylVVx1MDAwMTTW0yjQXHUwMDA1YUpcdTAwMTk2WlpcdTAwMDDCeMiyXHUwMDAzOWRji1x1MDAxZqpUtVWZkviz3COuzzghwlx1MDAxMlEvbLE9MFx1MDAxOMJcdTAwMDBcdTAwMTdcXPGFXHUwMDFj+HmmVTFa6lx1MDAxNysteOpxfclcXFm5kW6TV0tcdFN2XHUwMDE5wHN5ITRacHTZ39dNYUZ61yY07JFmpSzbIaH0YKFcdTAwMDWUNNHz5zr+SjdqXHUwMDA3tyfq43bzpnZo1s75oLbsXHUwMDFmP0L+1GMumUCMXHUwMDE3LcDoboJCmnUk9ixcYr5keFx1MDAxNldXaIVnnlpZXHUwMDAwllx1MDAwYnDbqD+ztIBsL1x1MDAxNmbvpdNcdTAwMWSCwcrbOMhkXHUwMDFhaVxcdJ5j6sCLLFx1MDAwNbblVfuMXHUwMDAzuFNy8yc4dlpcdTAwMDfvjsJQrDe+1vC6XHUwMDBi8lP7ZnPJIevO1jLkrqJAKMv5KGSBdIiYXHUwMDEw01xu3acn4Yzw4mdcdTAwMTbtU3yBQFx1MDAxMlZxXHUwMDAy+Fx1MDAxOZh1XHUwMDFmQ/rTMPv6yvbf3HvrVX8w2EtpMofchlYvbN/PSD7+6lVcdTAwMThcXK9NqtVvp9mX2/3I8O+AXHUwMDE2ZNzu25tv/1x1MDAwM1x1MDAxNrGBXCIifQ==<!-- payload-end -->
  <defs>
    <style class="style-fonts">
      @font-face {
        font-family: "Virgil";
        src: url("https://file%2B.vscode-resource.vscode-cdn.net/c%3A/Users/trfm1/.vscode/extensions/pomdtr.excalidraw-editor-3.7.4/public//dist/excalidraw-assets/Virgil.woff2");
      }
      @font-face {
        font-family: "Cascadia";
        src: url("https://file%2B.vscode-resource.vscode-cdn.net/c%3A/Users/trfm1/.vscode/extensions/pomdtr.excalidraw-editor-3.7.4/public//dist/excalidraw-assets/Cascadia.woff2");
      }
      @font-face {
        font-family: "Assistant";
        src: url("https://file%2B.vscode-resource.vscode-cdn.net/c%3A/Users/trfm1/.vscode/extensions/pomdtr.excalidraw-editor-3.7.4/public//dist/excalidraw-assets/Assistant-Regular.woff2");
      }
    </style>
    
  </defs>
  <rect x="0" y="0" width="1291.1706345241832" height="447.7965841029978" fill="#ffffff"></rect><g stroke-linecap="round" transform="translate(10 10) rotate(0 108.49604481967475 124.9357106989996)"><path d="M32 0 C85.88 1.17, 143.76 -1.35, 184.99 0 M32 0 C78.29 1.5, 126.48 1.08, 184.99 0 M184.99 0 C207.66 -0.03, 215.93 9.22, 216.99 32 M184.99 0 C205.07 0.87, 215.95 12.87, 216.99 32 M216.99 32 C217.07 104.49, 216.28 173, 216.99 217.87 M216.99 32 C217.9 78.79, 216.37 126.37, 216.99 217.87 M216.99 217.87 C215.14 240.57, 205.01 250.46, 184.99 249.87 M216.99 217.87 C215.42 239.12, 207.51 248.47, 184.99 249.87 M184.99 249.87 C146.24 250.37, 106.38 251.39, 32 249.87 M184.99 249.87 C127.24 251.62, 71.75 250.81, 32 249.87 M32 249.87 C11 251.81, 0.41 238.64, 0 217.87 M32 249.87 C9.03 248.67, -1.85 241.17, 0 217.87 M0 217.87 C-1.36 148.26, 0.74 78.62, 0 32 M0 217.87 C-1.65 145.26, -1.95 72.82, 0 32 M0 32 C-0.39 12.17, 8.79 1.61, 32 0 M0 32 C1.73 10.3, 9.65 -1.86, 32 0" stroke="#1e1e1e" stroke-width="2" fill="none"></path></g><g transform="translate(71.54411197303148 125.91784230863831) rotate(0 51.20450362415244 8.738901951855354)"><text x="0" y="0" font-family="Cascadia, Segoe UI Emoji" font-size="14.564836586425601px" fill="#1e1e1e" text-anchor="start" style="white-space: pre;" direction="ltr" dominant-baseline="text-before-edge">Sign Up Form</text></g><g stroke-linecap="round" transform="translate(696.8801709481091 13.11111016096379) rotate(0 108.49604481967481 124.9357106989996)"><path d="M32 0 C84.14 3.21, 135.29 1.73, 184.99 0 M32 0 C73.46 0.05, 113.56 -0.25, 184.99 0 M184.99 0 C208.03 0.72, 216.56 10.12, 216.99 32 M184.99 0 C204.59 -0.62, 216.02 12.91, 216.99 32 M216.99 32 C217.39 77.38, 216.5 125.38, 216.99 217.87 M216.99 32 C217.67 106.33, 216.79 180.54, 216.99 217.87 M216.99 217.87 C216.44 240.65, 207.88 250.44, 184.99 249.87 M216.99 217.87 C217.74 239.05, 205.45 252.1, 184.99 249.87 M184.99 249.87 C124.9 251.17, 67.34 247.42, 32 249.87 M184.99 249.87 C151.16 250.19, 115 249.83, 32 249.87 M32 249.87 C8.83 251.06, 0.28 237.37, 0 217.87 M32 249.87 C10.67 249.8, -0.72 238.97, 0 217.87 M0 217.87 C-1.16 148.08, -2.71 80.07, 0 32 M0 217.87 C0.88 158.52, 0.5 101.17, 0 32 M0 32 C0.05 9.39, 11.08 0.01, 32 0 M0 32 C0.32 11.66, 11.68 0.66, 32 0" stroke="#1e1e1e" stroke-width="2" fill="none"></path></g><g stroke-linecap="round"><g transform="translate(921.9891638571372 100.08899148636115) rotate(0 63.40245276348264 0)"><path d="M0.73 -0.42 C22.05 -0.24, 106.53 -0.16, 127.68 -0.06 M-0.35 -1.69 C20.91 -1.21, 105.91 0.9, 127.2 1.45" stroke="#1e1e1e" stroke-width="2" fill="none"></path></g><g transform="translate(921.9891638571372 100.08899148636115) rotate(0 63.40245276348264 0)"><path d="M98.76 11 C106.1 9.62, 114.66 6.94, 127.2 1.45 M98.76 11 C108.45 8.71, 115.68 4.09, 127.2 1.45" stroke="#1e1e1e" stroke-width="2" fill="none"></path></g><g transform="translate(921.9891638571372 100.08899148636115) rotate(0 63.40245276348264 0)"><path d="M99.27 -9.52 C106.27 -5.15, 114.69 -2.09, 127.2 1.45 M99.27 -9.52 C108.95 -5.36, 116.01 -3.55, 127.2 1.45" stroke="#1e1e1e" stroke-width="2" fill="none"></path></g></g><mask></mask><g transform="translate(775.8120420812783 126.65330687486761) rotate(0 25.59375 8.738901951855361)"><text x="0" y="0" font-family="Cascadia, Segoe UI Emoji" font-size="14.564836586425601px" fill="#1e1e1e" text-anchor="start" style="white-space: pre;" direction="ltr" dominant-baseline="text-before-edge">Server</text></g><g transform="translate(445.5760361287639 74.13251622092207) rotate(0 29.859375 8.738901951855368)"><text x="0" y="0" font-family="Cascadia, Segoe UI Emoji" font-size="14.564836586425601px" fill="#1e1e1e" text-anchor="start" style="white-space: pre;" direction="ltr" dominant-baseline="text-before-edge">Payload</text></g><g stroke-linecap="round" transform="translate(1064.1785448848336 13.11111016096379) rotate(0 108.49604481967481 124.9357106989996)"><path d="M32 0 C89.57 0.73, 150.26 2.58, 184.99 0 M32 0 C81.62 -0.68, 131.96 -1.49, 184.99 0 M184.99 0 C207.12 0.03, 218.35 10.87, 216.99 32 M184.99 0 C205.47 0.77, 217.77 11.95, 216.99 32 M216.99 32 C214.57 87.26, 215.22 146.31, 216.99 217.87 M216.99 32 C217 100.51, 215.59 167.42, 216.99 217.87 M216.99 217.87 C217.8 238.16, 206.04 251, 184.99 249.87 M216.99 217.87 C215.25 237.57, 204.39 247.77, 184.99 249.87 M184.99 249.87 C140.77 248.94, 95.03 248.95, 32 249.87 M184.99 249.87 C153.02 250.69, 120.5 249.01, 32 249.87 M32 249.87 C9.95 251.4, 0.09 240.81, 0 217.87 M32 249.87 C9.55 249.41, 0.02 240.19, 0 217.87 M0 217.87 C2.42 165.88, 2.7 114.79, 0 32 M0 217.87 C0.37 153.78, -0.72 91.98, 0 32 M0 32 C-1.58 12.57, 9.5 0.1, 32 0 M0 32 C2.28 11.74, 10.86 1.79, 32 0" stroke="#1e1e1e" stroke-width="2" fill="none"></path></g><g transform="translate(1164.768794807429 127.01100071266) rotate(0 8.53125 8.738901951855361)"><text x="0" y="0" font-family="Cascadia, Segoe UI Emoji" font-size="14.564836586425601px" fill="#1e1e1e" text-anchor="start" style="white-space: pre;" direction="ltr" dominant-baseline="text-before-edge">DB</text></g><g stroke-linecap="round"><g transform="translate(1036.8485543878282 197.19260099589488) rotate(0 -56.811763819779344 0)"><path d="M-0.42 0.17 C-19.32 0.41, -94.08 0.46, -113.09 0.52 M1.56 -0.78 C-17.48 -0.82, -94.83 -1.2, -113.75 -1.34" stroke="#1e1e1e" stroke-width="2" fill="none"></path></g><g transform="translate(1036.8485543878282 197.19260099589488) rotate(0 -56.811763819779344 0)"><path d="M-85.5 -11.43 C-94.52 -7.34, -103.18 -6.31, -113.75 -1.34 M-85.5 -11.43 C-95.37 -6.76, -104.5 -4.15, -113.75 -1.34" stroke="#1e1e1e" stroke-width="2" fill="none"></path></g><g transform="translate(1036.8485543878282 197.19260099589488) rotate(0 -56.811763819779344 0)"><path d="M-85.62 9.09 C-94.45 6.48, -103.06 0.8, -113.75 -1.34 M-85.62 9.09 C-95.51 6.75, -104.59 2.35, -113.75 -1.34" stroke="#1e1e1e" stroke-width="2" fill="none"></path></g></g><mask></mask><g transform="translate(947.852496576597 75.16230532869861) rotate(0 29.859375 8.738901951855368)"><text x="0" y="0" font-family="Cascadia, Segoe UI Emoji" font-size="14.564836586425601px" fill="#1e1e1e" text-anchor="start" style="white-space: pre;" direction="ltr" dominant-baseline="text-before-edge">Payload</text></g><g transform="translate(947.852496576597 162.93280178371714) rotate(0 34.125 8.738901951855361)"><text x="0" y="0" font-family="Cascadia, Segoe UI Emoji" font-size="14.564836586425601px" fill="#1e1e1e" text-anchor="start" style="white-space: pre;" direction="ltr" dominant-baseline="text-before-edge">Response</text></g><g stroke-linecap="round"><g transform="translate(276.6482623123384 107.74193239085767) rotate(0 203.3019339382767 0)"><path d="M-0.55 0.06 C67.43 -0.22, 339.44 -0.75, 407.28 -0.63 M1.36 -0.95 C69.29 -0.57, 339.3 0.6, 406.69 0.58" stroke="#1971c2" stroke-width="2" fill="none"></path></g><g transform="translate(276.6482623123384 107.74193239085767) rotate(0 203.3019339382767 0)"><path d="M378.47 10.77 C385.53 9.49, 391.43 5.62, 406.69 0.58 M378.47 10.77 C388.77 6.93, 398.34 2.53, 406.69 0.58" stroke="#1971c2" stroke-width="2" fill="none"></path></g><g transform="translate(276.6482623123384 107.74193239085767) rotate(0 203.3019339382767 0)"><path d="M378.52 -9.75 C385.75 -5.91, 391.64 -4.66, 406.69 0.58 M378.52 -9.75 C388.86 -6.03, 398.42 -2.87, 406.69 0.58" stroke="#1971c2" stroke-width="2" fill="none"></path></g></g><mask></mask><g transform="translate(445.8877360300753 148.4389537405799) rotate(0 59.71874999999994 8.738901951855361)"><text x="0" y="0" font-family="Cascadia, Segoe UI Emoji" font-size="14.564836586425601px" fill="#1e1e1e" text-anchor="start" style="white-space: pre;" direction="ltr" dominant-baseline="text-before-edge">http Error 400</text></g><g stroke-linecap="round"><g transform="translate(679.7189356846212 178.4363956299582) rotate(0 -203.269811161645 0)"><path d="M1.1 -0.3 C-66.57 -0.35, -338.59 -0.29, -406.49 -0.25 M0.22 -1.5 C-67.57 -1.38, -339.55 0.71, -407.41 1.16" stroke="#1e1e1e" stroke-width="2" fill="none"></path></g><g transform="translate(679.7189356846212 178.4363956299582) rotate(0 -203.269811161645 0)"><path d="M-379.29 -9.3 C-387.2 -6.2, -394.54 -3.1, -407.41 1.16 M-379.29 -9.3 C-387.52 -7.22, -395.23 -2.39, -407.41 1.16" stroke="#1e1e1e" stroke-width="2" fill="none"></path></g><g transform="translate(679.7189356846212 178.4363956299582) rotate(0 -203.269811161645 0)"><path d="M-379.15 11.22 C-387.11 8.91, -394.49 6.59, -407.41 1.16 M-379.15 11.22 C-387.26 7.27, -395.01 6.07, -407.41 1.16" stroke="#1e1e1e" stroke-width="2" fill="none"></path></g></g><mask></mask><g stroke-linecap="round"><g transform="translate(726.1995494324639 270.05821314165416) rotate(0 0 28.275811423419725)"><path d="M0.24 -0.8 C0.2 8.68, 0.35 47.23, 0.2 56.65 M-1.09 1.39 C-1.32 11.1, -0.54 49.03, -0.64 58.23" stroke="#1971c2" stroke-width="2" fill="none"></path></g></g><mask></mask><g stroke-linecap="round" transform="translate(270.6512396850188 283.99903142417287) rotate(0 104.60436678764017 76.8987763394125)"><path d="M32 0 C72.12 0.67, 109.02 -1.28, 177.21 0 M32 0 C63.83 0.14, 98.18 1.49, 177.21 0 M177.21 0 C200.29 1.18, 209.16 8.71, 209.21 32 M177.21 0 C198.85 0.77, 208.12 12.39, 209.21 32 M209.21 32 C208.77 52.47, 209.49 71.53, 209.21 121.8 M209.21 32 C208.01 54.97, 208.07 78.64, 209.21 121.8 M209.21 121.8 C209.52 144.41, 198.61 155.45, 177.21 153.8 M209.21 121.8 C209.87 141.15, 199.06 152.19, 177.21 153.8 M177.21 153.8 C122.98 154.07, 70.44 154.44, 32 153.8 M177.21 153.8 C125.57 154.26, 75.91 154.86, 32 153.8 M32 153.8 C9.27 153.34, -1.59 144.72, 0 121.8 M32 153.8 C8.9 156.06, 1.45 143.61, 0 121.8 M0 121.8 C0.41 96.53, 1.03 75.74, 0 32 M0 121.8 C0.21 97.37, 0.15 73.18, 0 32 M0 32 C-0.1 12.13, 8.79 0.96, 32 0 M0 32 C1.68 11.68, 10.67 0.69, 32 0" stroke="#1e1e1e" stroke-width="2" fill="none"></path></g><g transform="translate(300.82459224964146 355.5168879830189) rotate(0 76.78125 8.738901951855368)"><text x="0" y="0" font-family="Cascadia, Segoe UI Emoji" font-size="14.564836586425601px" fill="#1e1e1e" text-anchor="start" style="white-space: pre;" direction="ltr" dominant-baseline="text-before-edge">Phone Verification</text></g><g stroke-linecap="round"><g transform="translate(724.811969852061 329.6978434847648) rotate(0 -114.02511501269441 7.105427357601002e-15)"><path d="M0.03 0.02 C-37.94 0.02, -189.87 -0.92, -227.96 -0.79 M-1.42 -1.02 C-39.52 -0.82, -190.85 0.35, -228.86 0.34" stroke="#1971c2" stroke-width="2" fill="none"></path></g><g transform="translate(724.811969852061 329.6978434847648) rotate(0 -114.02511501269441 7.105427357601002e-15)"><path d="M-200.71 -10.04 C-208.84 -6.9, -218.28 -4.82, -228.86 0.34 M-200.71 -10.04 C-212 -6.7, -221.1 -2.4, -228.86 0.34" stroke="#1971c2" stroke-width="2" fill="none"></path></g><g transform="translate(724.811969852061 329.6978434847648) rotate(0 -114.02511501269441 7.105427357601002e-15)"><path d="M-200.63 10.48 C-208.65 7.72, -218.11 3.9, -228.86 0.34 M-200.63 10.48 C-212.03 6.28, -221.17 3.04, -228.86 0.34" stroke="#1971c2" stroke-width="2" fill="none"></path></g></g><mask></mask><g stroke-linecap="round"><g transform="translate(500.33362534032165 371.255137573858) rotate(0 313.8499724416606 0)"><path d="M0.65 -0.07 C105.07 -0.12, 523.07 -0.5, 627.47 -0.48 M-0.47 -1.14 C103.69 -1.02, 521.99 0.38, 626.4 0.81" stroke="#2f9e44" stroke-width="2" fill="none"></path></g><g transform="translate(500.33362534032165 371.255137573858) rotate(0 313.8499724416606 0)"><path d="M598.17 10.97 C608.79 6.57, 618.81 2.07, 626.4 0.81 M598.17 10.97 C607.25 6.76, 616.45 4.24, 626.4 0.81" stroke="#2f9e44" stroke-width="2" fill="none"></path></g><g transform="translate(500.33362534032165 371.255137573858) rotate(0 313.8499724416606 0)"><path d="M598.25 -9.56 C608.81 -6.16, 618.8 -2.88, 626.4 0.81 M598.25 -9.56 C607.27 -7.49, 616.44 -3.73, 626.4 0.81" stroke="#2f9e44" stroke-width="2" fill="none"></path></g></g><mask></mask><g stroke-linecap="round"><g transform="translate(1128.9582947998915 367.18351717140524) rotate(0 0 -46.10801343993241)"><path d="M0.98 0.44 C1.18 -14.83, 1.17 -76.22, 0.83 -91.59 M0.03 -0.38 C0.19 -15.99, 0.11 -77.8, 0.31 -93.39" stroke="#2f9e44" stroke-width="2" fill="none"></path></g><g transform="translate(1128.9582947998915 367.18351717140524) rotate(0 0 -46.10801343993241)"><path d="M10.43 -65.15 C8.46 -71.23, 6.06 -81.94, 0.31 -93.39 M10.43 -65.15 C6.35 -74.23, 4.49 -84.26, 0.31 -93.39" stroke="#2f9e44" stroke-width="2" fill="none"></path></g><g transform="translate(1128.9582947998915 367.18351717140524) rotate(0 0 -46.10801343993241)"><path d="M-10.09 -65.25 C-6.58 -71.47, -3.49 -82.16, 0.31 -93.39 M-10.09 -65.25 C-7.26 -74.27, -2.21 -84.26, 0.31 -93.39" stroke="#2f9e44" stroke-width="2" fill="none"></path></g></g><mask></mask><g transform="translate(589.2825972191221 293.8945996444383) rotate(0 46.921875 8.738901951855361)"><text x="0" y="0" font-family="Cascadia, Segoe UI Emoji" font-size="14.564836586425601px" fill="#1e1e1e" text-anchor="start" style="white-space: pre;" direction="ltr" dominant-baseline="text-before-edge">301 Created</text></g><g transform="translate(788.257295770133 342.946658775753) rotate(0 29.859375 8.738901951855368)"><text x="0" y="0" font-family="Cascadia, Segoe UI Emoji" font-size="14.564836586425601px" fill="#1e1e1e" text-anchor="start" style="white-space: pre;" direction="ltr" dominant-baseline="text-before-edge">Payload</text></g></svg>